<svg xmlns="http://www.w3.org/2000/svg" viewBox="0 18.139999389648438 308.9599914550781 40.33000183105469" data-asc="1.1552734375" width="308.9599914550781" height="40.33000183105469"><defs/><g fill="#000000"><g transform="translate(0, 0)"><path d="M0 57.76L0 49.34L3.91 49.34L3.91 27.32L0 27.32L0 18.90L21.97 18.90L21.97 27.32L16.60 27.32L16.60 49.46L24.56 49.46L25.54 40.36L33.59 40.36L33.59 57.76L0 57.76ZM51.95 58.20Q44.70 58.20 40.59 54.55Q36.47 50.90 36.47 44.43Q36.47 40.36 38.27 37.38Q40.06 34.40 43.29 32.78Q46.51 31.15 50.78 31.15Q54.96 31.15 57.93 32.68Q60.91 34.20 62.49 36.93Q64.06 39.65 64.06 43.21Q64.06 44.04 63.99 44.81Q63.92 45.58 63.82 46.22L48.12 46.22Q48.54 48.71 50.38 49.79Q52.22 50.88 54.88 50.88Q57.13 50.88 59.17 50.09Q61.21 49.29 62.62 48.10L63.28 48.39L63.28 55.40Q62.11 56.20 60.25 56.84Q58.40 57.47 56.24 57.84Q54.08 58.20 51.95 58.20M51.42 37.16Q49.78 37.16 48.95 38.43Q48.12 39.70 48.02 41.97L54.81 41.97Q54.71 39.70 53.89 38.43Q53.08 37.16 51.42 37.16ZM81.49 58.20Q76.90 58.20 73.57 56.57Q70.24 54.93 68.44 51.90Q66.65 48.88 66.65 44.70Q66.65 40.50 68.44 37.48Q70.24 34.45 73.57 32.80Q76.90 31.15 81.49 31.15Q86.08 31.15 89.42 32.80Q92.75 34.45 94.54 37.48Q96.34 40.50 96.34 44.70Q96.34 48.88 94.54 51.90Q92.75 54.93 89.42 56.57Q86.08 58.20 81.49 58.20M81.49 51.10Q84.79 51.10 84.79 44.68Q84.79 38.26 81.49 38.26Q78.20 38.26 78.20 44.68Q78.20 51.10 81.49 51.10ZM101.05 37.21L98.85 18.90L110.82 18.90L108.62 37.21L101.05 37.21ZM128.78 58.20Q126.29 58.20 123.95 57.62Q121.61 57.03 119.80 55.93L119.04 57.76L113.67 57.76L113.67 48.58L119.92 48.58Q120.48 50.49 121.88 51.59Q123.27 52.69 124.90 52.69Q127.05 52.69 127.05 51.07Q127.05 49.90 126.09 49.27Q125.12 48.63 123.60 48.19Q122.07 47.75 120.36 47.24Q118.65 46.73 117.13 45.84Q115.60 44.95 114.64 43.40Q113.67 41.85 113.67 39.33Q113.67 37.06 114.88 35.21Q116.09 33.35 118.54 32.24Q121.00 31.13 124.71 31.13Q127.10 31.13 129.14 31.63Q131.18 32.13 132.96 33.23L133.54 31.59L138.92 31.59L138.92 39.99L132.67 39.99Q132.03 38.13 130.85 37.27Q129.66 36.40 128.30 36.40Q125.90 36.40 125.90 37.87Q125.90 38.89 126.89 39.49Q127.88 40.09 129.43 40.53Q130.98 40.97 132.71 41.53Q134.45 42.09 136.00 43.04Q137.55 43.99 138.54 45.58Q139.53 47.17 139.53 49.71Q139.53 53.59 136.73 55.90Q133.94 58.20 128.78 58.20ZM173.05 58.47Q168.41 58.47 165.38 57.24Q162.35 56.01 160.55 53.93L159.30 57.76L152.59 57.76L152.59 44.68L161.69 44.68Q162.16 47.51 164.53 49.33Q166.89 51.15 170.51 51.15Q172.49 51.15 173.56 50.35Q174.63 49.56 174.63 48.17Q174.63 46.66 173.44 45.87Q172.24 45.09 170.26 44.65Q168.29 44.21 165.92 43.80Q163.55 43.38 161.18 42.65Q158.81 41.92 156.84 40.50Q154.86 39.09 153.66 36.66Q152.47 34.23 152.47 30.42Q152.47 26.73 154.24 23.97Q156.01 21.22 159.33 19.68Q162.65 18.14 167.29 18.14Q171.44 18.14 174.22 19.34Q177.00 20.53 178.76 22.73L180.00 18.90L186.72 18.90L186.72 31.49L177.42 31.49Q176.71 28.59 174.60 27.03Q172.49 25.46 169.70 25.46Q167.72 25.46 166.55 26.21Q165.38 26.95 165.38 28.39Q165.38 29.74 166.58 30.44Q167.77 31.15 169.75 31.59Q171.73 32.03 174.10 32.50Q176.46 32.96 178.83 33.76Q181.20 34.57 183.18 36.02Q185.16 37.48 186.35 39.89Q187.55 42.31 187.55 46.02Q187.55 51.83 183.69 55.15Q179.83 58.47 173.05 58.47ZM205.22 58.20Q199.44 58.20 196.29 55.55Q193.14 52.91 193.14 47.88L193.14 38.92L189.11 38.92L189.11 32.25L193.14 31.86L193.14 26.00L204.86 23.44L204.86 31.59L210.77 31.59L210.77 38.92L204.86 38.92L204.86 47.63Q204.86 49.10 205.58 49.91Q206.30 50.73 207.76 50.73Q208.62 50.73 209.22 50.57Q209.81 50.42 210.35 50.24L211.01 50.54L211.01 57.52Q209.62 57.84 208.22 58.02Q206.81 58.20 205.22 58.20ZM228.08 58.20Q223.49 58.20 220.15 56.57Q216.82 54.93 215.03 51.90Q213.23 48.88 213.23 44.70Q213.23 40.50 215.03 37.48Q216.82 34.45 220.15 32.80Q223.49 31.15 228.08 31.15Q232.67 31.15 236.00 32.80Q239.33 34.45 241.13 37.48Q242.92 40.50 242.92 44.70Q242.92 48.88 241.13 51.90Q239.33 54.93 236.00 56.57Q232.67 58.20 228.08 58.20M228.08 51.10Q231.37 51.10 231.37 44.68Q231.37 38.26 228.08 38.26Q224.78 38.26 224.78 44.68Q224.78 51.10 228.08 51.10ZM260.42 58.20Q253.49 58.20 249.50 54.55Q245.51 50.90 245.51 44.43Q245.51 40.38 247.20 37.40Q248.90 34.42 251.75 32.79Q254.59 31.15 258.01 31.15Q260.50 31.15 262.38 32.02Q264.26 32.89 265.58 34.40L266.55 31.59L271.95 31.59L271.95 42.43L264.92 42.43Q264.72 40.33 263.77 39.29Q262.82 38.26 261.38 38.26Q259.74 38.26 258.46 39.66Q257.18 41.06 257.18 44.34Q257.18 47.73 258.96 49.18Q260.74 50.63 263.48 50.63Q265.53 50.63 267.44 49.83Q269.36 49.02 270.75 47.85L271.41 48.14L271.41 55.40Q270.26 56.20 268.46 56.84Q266.65 57.47 264.55 57.84Q262.45 58.20 260.42 58.20ZM274.46 57.76L274.46 50.44L278.00 50.44L278.00 27.93L274.46 27.93L274.46 21.26L289.72 19.68L289.72 43.95L295.70 38.92L291.94 38.92L291.94 31.59L308.45 31.59L308.45 38.92L303.81 38.92L299.56 42.48L305.30 50.44L308.96 50.44L308.96 57.76L296.56 57.76L289.72 48.07L289.72 57.76L274.46 57.76Z"/></g></g></svg>